<mxfile host="app.diagrams.net" modified="2023-02-07T11:08:42.318Z" agent="5.0 (Windows NT 10.0; Win64; x64) AppleWebKit/537.36 (KHTML, like Gecko) Chrome/109.0.0.0 Safari/537.36" etag="kS606TW3nwLsv1JI5rew" version="20.8.17" type="github">
  <diagram id="C5RBs43oDa-KdzZeNtuy" name="Page-1">
    <mxGraphModel dx="2336" dy="804" grid="1" gridSize="10" guides="1" tooltips="1" connect="1" arrows="1" fold="1" page="1" pageScale="1" pageWidth="827" pageHeight="1169" math="0" shadow="0">
      <root>
        <mxCell id="WIyWlLk6GJQsqaUBKTNV-0" />
        <mxCell id="WIyWlLk6GJQsqaUBKTNV-1" parent="WIyWlLk6GJQsqaUBKTNV-0" />
        <mxCell id="mgBopC4tjNA10feJWHFR-37" value="" style="shape=cylinder3;whiteSpace=wrap;html=1;boundedLbl=1;backgroundOutline=1;size=15;fontSize=16;rotation=-15;" vertex="1" parent="WIyWlLk6GJQsqaUBKTNV-1">
          <mxGeometry x="-510" y="340" width="5" height="80" as="geometry" />
        </mxCell>
        <mxCell id="mgBopC4tjNA10feJWHFR-35" value="" style="shape=cylinder3;whiteSpace=wrap;html=1;boundedLbl=1;backgroundOutline=1;size=15;fontSize=16;rotation=20;" vertex="1" parent="WIyWlLk6GJQsqaUBKTNV-1">
          <mxGeometry x="-535" y="340" width="5" height="80" as="geometry" />
        </mxCell>
        <mxCell id="mgBopC4tjNA10feJWHFR-2" value="" style="edgeStyle=orthogonalEdgeStyle;rounded=0;orthogonalLoop=1;jettySize=auto;html=1;entryX=0.5;entryY=0;entryDx=0;entryDy=0;" edge="1" parent="WIyWlLk6GJQsqaUBKTNV-1" source="WIyWlLk6GJQsqaUBKTNV-3" target="mgBopC4tjNA10feJWHFR-29">
          <mxGeometry relative="1" as="geometry">
            <mxPoint x="390" y="190" as="targetPoint" />
          </mxGeometry>
        </mxCell>
        <mxCell id="WIyWlLk6GJQsqaUBKTNV-3" value="&lt;font style=&quot;vertical-align: inherit;&quot;&gt;&lt;font style=&quot;vertical-align: inherit;&quot;&gt;Начало&lt;/font&gt;&lt;/font&gt;" style="rounded=1;whiteSpace=wrap;html=1;fontSize=12;glass=0;strokeWidth=1;shadow=0;labelBackgroundColor=#52FF7A;labelBorderColor=#17AAFF;fillColor=#dae8fc;strokeColor=#6c8ebf;" parent="WIyWlLk6GJQsqaUBKTNV-1" vertex="1">
          <mxGeometry x="330" y="90" width="120" height="40" as="geometry" />
        </mxCell>
        <mxCell id="mgBopC4tjNA10feJWHFR-5" style="edgeStyle=orthogonalEdgeStyle;rounded=0;orthogonalLoop=1;jettySize=auto;html=1;entryX=0.5;entryY=0;entryDx=0;entryDy=0;exitX=1;exitY=0.5;exitDx=0;exitDy=0;exitPerimeter=0;" edge="1" parent="WIyWlLk6GJQsqaUBKTNV-1" source="mgBopC4tjNA10feJWHFR-29" target="mgBopC4tjNA10feJWHFR-4">
          <mxGeometry relative="1" as="geometry">
            <mxPoint x="439.9866666666667" y="220.03999999999996" as="sourcePoint" />
            <Array as="points">
              <mxPoint x="530" y="220" />
            </Array>
          </mxGeometry>
        </mxCell>
        <mxCell id="mgBopC4tjNA10feJWHFR-6" value="-" style="edgeLabel;html=1;align=center;verticalAlign=middle;resizable=0;points=[];fontSize=21;" vertex="1" connectable="0" parent="mgBopC4tjNA10feJWHFR-5">
          <mxGeometry x="-0.3125" relative="1" as="geometry">
            <mxPoint x="-1" y="-6" as="offset" />
          </mxGeometry>
        </mxCell>
        <mxCell id="mgBopC4tjNA10feJWHFR-9" value="" style="edgeStyle=orthogonalEdgeStyle;rounded=0;orthogonalLoop=1;jettySize=auto;html=1;fontSize=21;entryX=0.526;entryY=0.018;entryDx=0;entryDy=0;entryPerimeter=0;exitX=0;exitY=0.5;exitDx=0;exitDy=0;" edge="1" parent="WIyWlLk6GJQsqaUBKTNV-1" source="mgBopC4tjNA10feJWHFR-29" target="mgBopC4tjNA10feJWHFR-12">
          <mxGeometry relative="1" as="geometry">
            <mxPoint x="339.9866666666667" y="220.03999999999996" as="sourcePoint" />
            <mxPoint x="230" y="260" as="targetPoint" />
          </mxGeometry>
        </mxCell>
        <mxCell id="mgBopC4tjNA10feJWHFR-24" value="&lt;font style=&quot;font-size: 21px;&quot;&gt;+&lt;/font&gt;" style="edgeLabel;html=1;align=center;verticalAlign=middle;resizable=0;points=[];fontSize=14;" vertex="1" connectable="0" parent="mgBopC4tjNA10feJWHFR-9">
          <mxGeometry x="-0.4022" relative="1" as="geometry">
            <mxPoint as="offset" />
          </mxGeometry>
        </mxCell>
        <mxCell id="mgBopC4tjNA10feJWHFR-4" value="&lt;font style=&quot;vertical-align: inherit;&quot;&gt;&lt;font style=&quot;vertical-align: inherit;&quot;&gt;нет поисковика&lt;/font&gt;&lt;/font&gt;" style="rounded=1;whiteSpace=wrap;html=1;fillColor=#f8cecc;strokeColor=#b85450;" vertex="1" parent="WIyWlLk6GJQsqaUBKTNV-1">
          <mxGeometry x="470" y="270" width="120" height="60" as="geometry" />
        </mxCell>
        <mxCell id="mgBopC4tjNA10feJWHFR-15" value="" style="edgeStyle=orthogonalEdgeStyle;rounded=0;orthogonalLoop=1;jettySize=auto;html=1;fontSize=21;" edge="1" parent="WIyWlLk6GJQsqaUBKTNV-1" source="mgBopC4tjNA10feJWHFR-12" target="mgBopC4tjNA10feJWHFR-13">
          <mxGeometry relative="1" as="geometry" />
        </mxCell>
        <mxCell id="mgBopC4tjNA10feJWHFR-26" style="edgeStyle=orthogonalEdgeStyle;rounded=0;orthogonalLoop=1;jettySize=auto;html=1;fontSize=9;" edge="1" parent="WIyWlLk6GJQsqaUBKTNV-1" source="mgBopC4tjNA10feJWHFR-12" target="mgBopC4tjNA10feJWHFR-25">
          <mxGeometry relative="1" as="geometry" />
        </mxCell>
        <mxCell id="mgBopC4tjNA10feJWHFR-28" style="edgeStyle=orthogonalEdgeStyle;rounded=0;orthogonalLoop=1;jettySize=auto;html=1;exitX=0;exitY=0;exitDx=0;exitDy=0;fontSize=9;" edge="1" parent="WIyWlLk6GJQsqaUBKTNV-1" source="mgBopC4tjNA10feJWHFR-12" target="mgBopC4tjNA10feJWHFR-27">
          <mxGeometry relative="1" as="geometry" />
        </mxCell>
        <mxCell id="mgBopC4tjNA10feJWHFR-12" value="Меню, о сайте, новости" style="rounded=1;whiteSpace=wrap;html=1;fontSize=21;fillColor=#dae8fc;strokeColor=#6c8ebf;" vertex="1" parent="WIyWlLk6GJQsqaUBKTNV-1">
          <mxGeometry x="160" y="270" width="130" height="70" as="geometry" />
        </mxCell>
        <mxCell id="mgBopC4tjNA10feJWHFR-17" value="" style="edgeStyle=orthogonalEdgeStyle;rounded=0;orthogonalLoop=1;jettySize=auto;html=1;fontSize=21;" edge="1" parent="WIyWlLk6GJQsqaUBKTNV-1" source="mgBopC4tjNA10feJWHFR-13" target="mgBopC4tjNA10feJWHFR-16">
          <mxGeometry relative="1" as="geometry" />
        </mxCell>
        <mxCell id="mgBopC4tjNA10feJWHFR-38" value="-" style="edgeLabel;html=1;align=center;verticalAlign=middle;resizable=0;points=[];fontSize=23;" vertex="1" connectable="0" parent="mgBopC4tjNA10feJWHFR-17">
          <mxGeometry x="0.2999" relative="1" as="geometry">
            <mxPoint as="offset" />
          </mxGeometry>
        </mxCell>
        <mxCell id="mgBopC4tjNA10feJWHFR-19" value="" style="edgeStyle=orthogonalEdgeStyle;rounded=0;orthogonalLoop=1;jettySize=auto;html=1;fontSize=21;" edge="1" parent="WIyWlLk6GJQsqaUBKTNV-1" source="mgBopC4tjNA10feJWHFR-13" target="mgBopC4tjNA10feJWHFR-18">
          <mxGeometry relative="1" as="geometry">
            <Array as="points">
              <mxPoint x="-60" y="305" />
            </Array>
          </mxGeometry>
        </mxCell>
        <mxCell id="mgBopC4tjNA10feJWHFR-41" value="+" style="edgeLabel;html=1;align=center;verticalAlign=middle;resizable=0;points=[];fontSize=21;" vertex="1" connectable="0" parent="mgBopC4tjNA10feJWHFR-19">
          <mxGeometry x="0.3071" relative="1" as="geometry">
            <mxPoint as="offset" />
          </mxGeometry>
        </mxCell>
        <mxCell id="mgBopC4tjNA10feJWHFR-13" value="меню" style="rhombus;whiteSpace=wrap;html=1;fontSize=21;rounded=1;fillColor=#dae8fc;strokeColor=#6c8ebf;" vertex="1" parent="WIyWlLk6GJQsqaUBKTNV-1">
          <mxGeometry x="1" y="265" width="80" height="80" as="geometry" />
        </mxCell>
        <mxCell id="mgBopC4tjNA10feJWHFR-23" value="" style="edgeStyle=orthogonalEdgeStyle;rounded=0;orthogonalLoop=1;jettySize=auto;html=1;fontSize=14;" edge="1" parent="WIyWlLk6GJQsqaUBKTNV-1" source="mgBopC4tjNA10feJWHFR-16" target="mgBopC4tjNA10feJWHFR-21">
          <mxGeometry relative="1" as="geometry" />
        </mxCell>
        <mxCell id="mgBopC4tjNA10feJWHFR-39" style="edgeStyle=orthogonalEdgeStyle;rounded=0;orthogonalLoop=1;jettySize=auto;html=1;fontSize=23;" edge="1" parent="WIyWlLk6GJQsqaUBKTNV-1" source="mgBopC4tjNA10feJWHFR-16" target="mgBopC4tjNA10feJWHFR-40">
          <mxGeometry relative="1" as="geometry">
            <mxPoint x="-140" y="390" as="targetPoint" />
          </mxGeometry>
        </mxCell>
        <mxCell id="mgBopC4tjNA10feJWHFR-16" value="кто разработчик" style="whiteSpace=wrap;html=1;fontSize=21;rounded=1;fillColor=#dae8fc;strokeColor=#6c8ebf;" vertex="1" parent="WIyWlLk6GJQsqaUBKTNV-1">
          <mxGeometry x="-320" y="277.5" width="149" height="55" as="geometry" />
        </mxCell>
        <mxCell id="mgBopC4tjNA10feJWHFR-20" style="edgeStyle=orthogonalEdgeStyle;rounded=0;orthogonalLoop=1;jettySize=auto;html=1;entryX=0;entryY=0.5;entryDx=0;entryDy=0;fontSize=21;" edge="1" parent="WIyWlLk6GJQsqaUBKTNV-1" source="mgBopC4tjNA10feJWHFR-18" target="WIyWlLk6GJQsqaUBKTNV-3">
          <mxGeometry relative="1" as="geometry" />
        </mxCell>
        <mxCell id="mgBopC4tjNA10feJWHFR-18" value="Главный меню" style="whiteSpace=wrap;html=1;fontSize=21;rounded=1;fillColor=#dae8fc;strokeColor=#6c8ebf;" vertex="1" parent="WIyWlLk6GJQsqaUBKTNV-1">
          <mxGeometry x="-120" y="30" width="120" height="60" as="geometry" />
        </mxCell>
        <mxCell id="mgBopC4tjNA10feJWHFR-21" value="&lt;font style=&quot;font-size: 14px;&quot;&gt;Информация о разработчике&lt;/font&gt;" style="shape=umlActor;verticalLabelPosition=bottom;verticalAlign=top;html=1;outlineConnect=0;fontSize=21;fillColor=#dae8fc;strokeColor=#6c8ebf;" vertex="1" parent="WIyWlLk6GJQsqaUBKTNV-1">
          <mxGeometry x="-260.5" y="130" width="30" height="60" as="geometry" />
        </mxCell>
        <mxCell id="mgBopC4tjNA10feJWHFR-25" value="информация о сайте" style="shape=cylinder3;whiteSpace=wrap;html=1;boundedLbl=1;backgroundOutline=1;size=15;fontSize=9;fillColor=#dae8fc;strokeColor=#6c8ebf;" vertex="1" parent="WIyWlLk6GJQsqaUBKTNV-1">
          <mxGeometry x="100" y="360" width="60" height="80" as="geometry" />
        </mxCell>
        <mxCell id="mgBopC4tjNA10feJWHFR-27" value="новости сайта" style="shape=note;whiteSpace=wrap;html=1;backgroundOutline=1;darkOpacity=0.05;fontSize=9;fillColor=#dae8fc;strokeColor=#6c8ebf;" vertex="1" parent="WIyWlLk6GJQsqaUBKTNV-1">
          <mxGeometry x="90" y="140" width="70" height="80" as="geometry" />
        </mxCell>
        <mxCell id="mgBopC4tjNA10feJWHFR-32" value="" style="edgeStyle=orthogonalEdgeStyle;rounded=0;orthogonalLoop=1;jettySize=auto;html=1;fontSize=16;" edge="1" parent="WIyWlLk6GJQsqaUBKTNV-1" source="mgBopC4tjNA10feJWHFR-29" target="mgBopC4tjNA10feJWHFR-31">
          <mxGeometry relative="1" as="geometry" />
        </mxCell>
        <mxCell id="mgBopC4tjNA10feJWHFR-29" value="цитаты" style="rhombus;whiteSpace=wrap;html=1;fontSize=16;fillColor=#dae8fc;strokeColor=#6c8ebf;" vertex="1" parent="WIyWlLk6GJQsqaUBKTNV-1">
          <mxGeometry x="350" y="190" width="80" height="60" as="geometry" />
        </mxCell>
        <mxCell id="mgBopC4tjNA10feJWHFR-31" value="Конец" style="rounded=1;whiteSpace=wrap;html=1;fontSize=16;fillColor=#dae8fc;strokeColor=#6c8ebf;" vertex="1" parent="WIyWlLk6GJQsqaUBKTNV-1">
          <mxGeometry x="330" y="330" width="120" height="60" as="geometry" />
        </mxCell>
        <mxCell id="mgBopC4tjNA10feJWHFR-33" value="" style="shape=cylinder3;whiteSpace=wrap;html=1;boundedLbl=1;backgroundOutline=1;size=15;fontSize=16;" vertex="1" parent="WIyWlLk6GJQsqaUBKTNV-1">
          <mxGeometry x="-535" y="300" width="30" height="80" as="geometry" />
        </mxCell>
        <mxCell id="mgBopC4tjNA10feJWHFR-34" value="" style="ellipse;whiteSpace=wrap;html=1;aspect=fixed;fontSize=16;" vertex="1" parent="WIyWlLk6GJQsqaUBKTNV-1">
          <mxGeometry x="-560" y="252.5" width="80" height="80" as="geometry" />
        </mxCell>
        <mxCell id="mgBopC4tjNA10feJWHFR-40" value="мало кому интересно" style="rounded=1;whiteSpace=wrap;html=1;fontSize=18;fillColor=#f8cecc;strokeColor=#b85450;" vertex="1" parent="WIyWlLk6GJQsqaUBKTNV-1">
          <mxGeometry x="-190" y="376" width="120" height="60" as="geometry" />
        </mxCell>
        <mxCell id="mgBopC4tjNA10feJWHFR-45" style="edgeStyle=orthogonalEdgeStyle;rounded=0;orthogonalLoop=1;jettySize=auto;html=1;fontSize=10;" edge="1" parent="WIyWlLk6GJQsqaUBKTNV-1" source="mgBopC4tjNA10feJWHFR-43">
          <mxGeometry relative="1" as="geometry">
            <mxPoint x="-60" y="177.5" as="targetPoint" />
          </mxGeometry>
        </mxCell>
        <mxCell id="mgBopC4tjNA10feJWHFR-43" value="быстрый выход в главный меню" style="rounded=1;whiteSpace=wrap;html=1;fontSize=10;fillColor=#dae8fc;strokeColor=#6c8ebf;" vertex="1" parent="WIyWlLk6GJQsqaUBKTNV-1">
          <mxGeometry x="-160" y="165" width="80" height="25" as="geometry" />
        </mxCell>
      </root>
    </mxGraphModel>
  </diagram>
</mxfile>
